<?xml version="1.0" encoding="UTF-8" standalone="no"?>
<!-- Created with Inkscape (http://www.inkscape.org/) -->

<svg
   xmlns:dc="http://purl.org/dc/elements/1.1/"
   xmlns:cc="http://creativecommons.org/ns#"
   xmlns:rdf="http://www.w3.org/1999/02/22-rdf-syntax-ns#"
   xmlns:svg="http://www.w3.org/2000/svg"
   xmlns="http://www.w3.org/2000/svg"
   xmlns:sodipodi="http://sodipodi.sourceforge.net/DTD/sodipodi-0.dtd"
   xmlns:inkscape="http://www.inkscape.org/namespaces/inkscape"
   width="193.73706mm"
   height="132.90588mm"
   viewBox="0 0 686.4699 470.92636"
   id="svg3432"
   version="1.1"
   inkscape:version="0.91 r13725"
   sodipodi:docname="regan.svg">
  <defs
     id="defs3434" />
  <sodipodi:namedview
     id="base"
     pagecolor="#ffffff"
     bordercolor="#666666"
     borderopacity="1.0"
     inkscape:pageopacity="0.0"
     inkscape:pageshadow="2"
     inkscape:zoom="0.73366038"
     inkscape:cx="434.38748"
     inkscape:cy="821.56543"
     inkscape:document-units="px"
     inkscape:current-layer="layer1"
     showgrid="false"
     inkscape:window-width="1280"
     inkscape:window-height="1643"
     inkscape:window-x="0"
     inkscape:window-y="26"
     inkscape:window-maximized="0"
     fit-margin-top="0"
     fit-margin-left="0"
     fit-margin-right="0"
     fit-margin-bottom="0" />
  <metadata
     id="metadata3437">
    <rdf:RDF>
      <cc:Work
         rdf:about="">
        <dc:format>image/svg+xml</dc:format>
        <dc:type
           rdf:resource="http://purl.org/dc/dcmitype/StillImage" />
        <dc:title></dc:title>
      </cc:Work>
    </rdf:RDF>
  </metadata>
  <g
     inkscape:label="Layer 1"
     inkscape:groupmode="layer"
     id="layer1"
     transform="translate(-17.260947,-168.39564)">
    <path
       d="m 520.24449,471.68707 c 0,0 -35.92636,46.19282 -13.47552,97.51886 0,0 5.7788,10.26647 -3.20279,17.96318 -8.98158,7.69672 -29.51451,36.56565 -34.00217,42.34446 -4.49393,5.77253 -25.02058,8.98159 -31.43869,8.98159 -6.41811,0 -10.90576,-3.84836 -14.75412,0 -3.84836,3.84835 -7.70298,-7.05741 -12.83621,-5.77881 -5.12696,1.28488 -3.84836,-8.33602 0,-9.6209 3.85462,-1.28486 4.49393,-14.75412 17.96944,-12.19064 13.46925,2.56976 28.04788,-0.63929 35.19304,-10.90576 7.14514,-10.26646 16.7723,-21.17222 9.06933,-35.92634 -7.69672,-14.75414 -32.078,-62.23181 -33.3566,-76.34664 -1.28488,-14.11481 1.2786,-21.81153 -7.70299,-19.24805 -8.98158,2.56976 -25.02058,13.47552 -29.50824,12.19065 -4.49393,-1.28488 -9.62716,3.20905 -12.82994,0.6393 -3.20906,-2.56349 -10.26647,-5.77254 -14.76039,-8.33602 -4.48767,-2.56975 -10.90577,-4.49393 -12.19065,5.13324 -1.2786,9.62088 -4.48766,46.19281 0,66.08016 4.49393,19.88736 3.07743,34.64148 -2.31277,47.47142 -5.38394,12.83622 -11.15647,26.30546 -28.48034,28.8752 -17.31761,2.56348 -28.22964,-0.64557 -29.50825,-3.85462 -1.28487,-3.20278 -4.49392,2.56976 -4.49392,2.56976 0,0 -1.28488,-12.19064 5.77253,-14.11483 7.0574,-1.92417 5.13323,-9.62088 10.91203,-6.4181 5.77253,3.20905 10.90577,5.77881 17.31761,-4.48766 6.41811,-10.26647 8.34228,-33.36287 5.13323,-60.30764 -3.20905,-26.94476 -16.039,-75.06174 -21.81153,-80.19498 -5.77254,-5.13323 -10.90577,-10.26646 -12.82995,-10.26646 -1.92418,0 -6.41811,-1.27861 -11.55133,0 -5.13324,1.28487 -12.82995,2.56975 -6.41184,8.34228 6.41184,5.77254 -13.47552,1.92418 -5.13323,5.77254 8.33601,3.84836 -47.47769,21.81153 -69.28923,49.40186 -21.81153,27.58407 -30.15381,35.92635 -30.79312,62.23181 -0.64557,26.30547 -14.11481,38.48983 -20.53291,39.1354 -6.41811,0.63931 0,1.92419 0,1.92419 0,0 -7.05742,3.20905 -6.41811,6.41183 0.64557,3.20905 -17.96318,-8.98159 -17.96318,-4.48766 0,4.48766 -3.84835,8.98159 -3.84835,4.48766 0,-4.48766 -3.20906,-1.2786 -3.20906,-9.62088 0,-8.34229 -1.27861,-19.88736 10.26646,-23.09642 11.55134,-3.20905 19.88736,-10.90576 19.88736,-35.92634 0,-25.02059 -5.13323,-20.53293 16.039,-50.68675 21.17222,-30.14754 43.62933,-52.60465 43.62933,-57.73788 0,-5.13322 -8.98159,-25.02058 -8.98159,-19.88735 0,5.13323 3.20905,19.88735 -1.28488,11.54506 -4.48765,-8.33601 -10.26646,-32.71729 -11.54507,-23.7357 -1.28487,8.98158 -7.70298,-9.68984 -7.70298,-1.95552 0,7.72805 -7.69671,-34.61014 -7.69671,-26.27412 0,8.34229 -7.05741,-7.95995 -6.4181,-1.09057 0.64557,6.86938 -4.48767,6.22381 -7.69672,-11.10007 -3.20906,-17.3176 -12.82994,-21.16596 -12.19064,-12.82995 0.64557,8.34229 -29.50824,-41.69888 -52.60466,-41.05957 -23.096396,0.64557 -35.287035,3.84835 -43.629326,8.34228 -8.34228,4.48766 -19.887348,1.91164 -25.659882,-8.34856 0,0 -11.551344,-1.91791 -11.551344,-14.10855 0,0 -5.772534,-12.82993 0,-15.39343 5.77881,-2.56974 30.153824,-10.26645 30.153824,-23.0964 0,-12.83621 5.133227,-30.15381 10.905761,-33.36286 0,0 -10.905761,5.13323 -5.772534,0 5.133227,-5.13324 15.399692,-12.82995 26.94476,-17.32388 11.551344,-4.48765 -6.411829,-3.84836 1.924186,-6.4181 8.34228,-2.56349 4.49392,10.91203 9.627158,-7.69671 5.133227,-18.60248 5.772534,-26.30547 11.545067,-17.3176 5.77254,8.97531 5.77254,17.96317 9.62716,17.96317 3.84836,0 3.20279,1.2786 11.54507,-8.98786 8.34228,-10.26019 19.24805,-25.65989 16.6783,-16.03899 -2.56348,9.62716 -11.54508,25.02685 -7.05741,17.32386 4.49393,-7.6967 10.91204,-18.60248 10.26647,-8.98158 -0.63931,9.62716 0,9.62716 5.13322,1.92417 5.13323,-7.69671 11.55134,-18.60248 16.6783,-3.84835 5.13324,14.76039 5.77881,18.60875 5.77881,26.94476 0,8.34228 1.92417,-12.82994 6.41184,-1.28487 4.49392,11.55134 2.56974,-2.56349 5.13323,5.1395 2.56974,7.69671 1.92417,-0.64557 8.98158,9.62089 7.05742,10.26646 3.20906,-19.24805 12.82995,-0.63931 9.62716,18.60249 12.83621,11.54507 14.11481,16.039 1.28488,4.48766 4.49393,-2.56975 7.70299,2.56349 3.20279,5.13322 13.46924,-12.19064 15.39342,-12.19064 1.92418,0 -9.62089,16.67829 -5.13323,16.67829 4.49393,0 7.70298,-18.60248 11.55134,-6.41184 3.84836,12.19065 0.63931,-6.41811 10.26647,4.48767 9.62088,10.91203 5.12696,-0.63931 10.90576,5.77879 5.77253,6.41185 4.48765,-2.56974 14.11481,5.13324 9.62089,7.69671 15.39343,3.20278 17.96318,7.69671 2.56349,4.48766 5.13323,-8.34228 12.82994,3.84836 7.69672,12.19064 27.58407,5.13323 27.58407,8.98159 0,3.84835 12.19064,-2.56348 12.19064,3.20905 0,5.77253 -16.03899,-2.56976 13.47551,7.0574 29.50825,9.6209 47.47143,13.46926 46.19282,16.039 -1.28487,2.56348 -7.0574,0 16.039,7.69672 23.09641,7.69671 46.19281,12.82994 53.88953,13.47551 7.69671,0.6393 -8.34229,8.9816 3.20905,11.54508 11.54507,2.56974 24.375,-7.69672 25.02057,1.92417 0.63931,9.62716 -5.77253,6.41811 5.77255,14.76039 11.55133,8.33601 30.79311,12.82994 41.69888,25.02058 10.91204,12.18438 41.05959,3.84836 46.83838,-14.76038 5.77254,-18.60248 -32.83638,-84.68265 -77.68791,-36.56566 0,0 -2.50707,-30.79938 18.01958,-39.13541 20.53294,-8.34228 -25.99207,1.7675 -44.90793,23.09641 0,0 12.19064,-44.90793 67.36504,-45.5535 0,0 -32.078,-15.39343 -74.42245,-3.20905 -42.34445,12.19064 39.1354,-51.32605 108.42462,-8.98159 0,0 -16.039,-26.94477 -25.66616,-28.22338 0,0 44.91421,1.91791 72.49828,89.81588 0,0 2.56975,-21.17222 0,-34.00217 0,0 18.60875,17.3176 12.82994,53.25023 -5.77254,35.92634 -27.58406,46.19281 -23.0964,47.47141 4.49393,1.28488 10.91203,2.56975 -2.56349,8.98159 -13.47551,6.4181 -50.68047,16.039 -63.51669,11.55133 -12.82993,-4.49392 -13.46924,1.28488 -6.41182,16.67831 7.0574,15.39969 16.03898,62.23181 34.64146,80.19498 18.60875,17.96317 21.81154,24.38128 41.70516,30.15381 19.88735,5.77254 11.84592,12.82995 20.35743,19.88736 8.51152,7.05741 14.28405,21.17223 25.18981,28.87521 10.90576,7.69671 12.19064,10.26019 12.19064,21.16596 0,10.91203 -7.69671,28.8752 -9.62089,35.93262 -1.93044,7.05741 -21.8178,6.41184 -29.51451,6.41184 -7.69672,0 -16.039,-1.92418 -14.75412,-6.41184 1.2786,-4.49394 -6.41811,4.48766 -6.41811,4.48766 0,0 -1.28487,-10.90577 7.05741,-12.82994 8.34229,-1.92419 4.49393,-12.19064 12.82994,-9.62716 8.34229,2.56974 13.47552,0 14.11483,-7.69672 0.64557,-7.69671 5.77253,-17.96318 -9.6209,-27.58407 -15.39969,-9.62716 -21.81153,-18.60874 -26.94476,-25.66615 -5.13324,-7.05741 -4.49393,-7.05741 -26.94477,-14.11482 -22.4571,-7.05741 -51.32604,-17.96317 -49.40186,-14.11481 1.92418,3.85462 1.28488,4.49392 -10.90576,-5.12697 -12.19064,-9.62717 -30.79939,-37.21122 -33.36287,-43.62934"
       style="fill:#d2b48c;fill-opacity:1;fill-rule:nonzero;stroke:none"
       id="path3391"
       inkscape:connector-curvature="0" />
  </g>
</svg>
